<svg xmlns="http://www.w3.org/2000/svg" width="10.55" height="9.059" viewBox="0 0 10.55 9.059"><defs><style>.a{fill:#e94f36;}</style></defs><g transform="translate(-209.032 -770.061)"><g transform="translate(209.032 779.12) rotate(-90)"><path class="a" d="M4.529,5.164a.633.633,0,0,1-.448-.186l-3.9-3.9a.634.634,0,0,1,.9-.9L4.529,3.632,7.976.186a.634.634,0,0,1,.9.9l-3.9,3.9A.633.633,0,0,1,4.529,5.164Z" transform="translate(0)"/></g><g transform="translate(214.418 779.12) rotate(-90)"><path class="a" d="M4.529,5.164a.633.633,0,0,1-.448-.186l-3.9-3.9a.634.634,0,0,1,.9-.9L4.529,3.632,7.976.186a.634.634,0,0,1,.9.9l-3.9,3.9A.633.633,0,0,1,4.529,5.164Z" transform="translate(0)"/></g></g></svg>